<?xml version="1.0" encoding="UTF-8" standalone="no"?>
<!DOCTYPE svg PUBLIC "-//W3C//DTD SVG 1.1//EN"
 "http://www.w3.org/Graphics/SVG/1.1/DTD/svg11.dtd">
<!-- Generated by graphviz version 14.1.5 (20260411.2331)
 -->
<!-- Title: G Pages: 1 -->
<svg width="393pt" height="469pt"
 viewBox="0.00 0.00 393.00 469.00" xmlns="http://www.w3.org/2000/svg" xmlns:xlink="http://www.w3.org/1999/xlink">
<g id="graph0" class="graph" transform="scale(1 1) rotate(0) translate(4 464.76)">
<title>G</title><style>.edge>path:hover{stroke-width:8}</style>
<polygon fill="white" stroke="none" points="-4,4 -4,-464.76 389.03,-464.76 389.03,4 -4,4"/>
<!-- assault -->
<g id="node1" class="node">
<title>assault</title><style>.edge>path:hover{stroke-width:8}</style>
<polygon fill="#ce3b3b" stroke="black" points="159.51,-388.76 156.51,-392.76 135.51,-392.76 132.51,-388.76 105.51,-388.76 105.51,-352.76 159.51,-352.76 159.51,-388.76"/>
<text xml:space="preserve" text-anchor="middle" x="132.51" y="-367.26" font-family="Helvetica,sans-Serif" font-size="10.00" fill="#ffffff">assault</text>
</g>
<!-- assault_runner_policies -->
<g id="node2" class="node">
<title>assault_runner_policies</title><style>.edge>path:hover{stroke-width:8}</style>
<ellipse fill="#5c8137" stroke="black" cx="58.51" cy="-22.63" rx="58.51" ry="22.63"/>
<text xml:space="preserve" text-anchor="middle" x="58.51" y="-25.13" font-family="Helvetica,sans-Serif" font-size="10.00" fill="#ffffff">assault_runner.</text>
<text xml:space="preserve" text-anchor="middle" x="58.51" y="-13.13" font-family="Helvetica,sans-Serif" font-size="10.00" fill="#ffffff">policies</text>
</g>
<!-- assault&#45;&gt;assault_runner_policies -->
<g id="edge1" class="edge">
<title>assault&#45;&gt;assault_runner_policies</title><style>.edge>path:hover{stroke-width:8}</style>
<path fill="none" stroke="black" d="M130.5,-352.34C129.79,-341.89 129.74,-328.4 132.51,-316.76"/>
</g>
<!-- assault_runner_rationale -->
<g id="node3" class="node">
<title>assault_runner_rationale</title><style>.edge>path:hover{stroke-width:8}</style>
<ellipse fill="#70b42d" stroke="black" cx="326.51" cy="-185.14" rx="58.51" ry="22.63"/>
<text xml:space="preserve" text-anchor="middle" x="326.51" y="-187.64" font-family="Helvetica,sans-Serif" font-size="10.00" fill="#000000">assault_runner.</text>
<text xml:space="preserve" text-anchor="middle" x="326.51" y="-175.64" font-family="Helvetica,sans-Serif" font-size="10.00" fill="#000000">rationale</text>
</g>
<!-- assault&#45;&gt;assault_runner_rationale -->
<g id="edge2" class="edge">
<title>assault&#45;&gt;assault_runner_rationale</title><style>.edge>path:hover{stroke-width:8}</style>
<path fill="none" stroke="black" d="M288.51,-260.76C287.95,-245.02 294.67,-229.23 302.61,-216.26"/>
<polygon fill="#ce3b3b" stroke="black" points="305.36,-218.45 307.99,-208.19 299.53,-214.57 305.36,-218.45"/>
</g>
<!-- assault_runner_rl_runner -->
<g id="node5" class="node">
<title>assault_runner_rl_runner</title><style>.edge>path:hover{stroke-width:8}</style>
<ellipse fill="#6b9640" stroke="black" cx="288.51" cy="-103.88" rx="58.51" ry="22.63"/>
<text xml:space="preserve" text-anchor="middle" x="288.51" y="-106.38" font-family="Helvetica,sans-Serif" font-size="10.00" fill="#ffffff">assault_runner.</text>
<text xml:space="preserve" text-anchor="middle" x="288.51" y="-94.38" font-family="Helvetica,sans-Serif" font-size="10.00" fill="#ffffff">rl_runner</text>
</g>
<!-- assault&#45;&gt;assault_runner_rl_runner -->
<g id="edge3" class="edge">
<title>assault&#45;&gt;assault_runner_rl_runner</title><style>.edge>path:hover{stroke-width:8}</style>
<path fill="none" stroke="black" d="M288.51,-260.76C287.54,-233.71 265.41,-233.94 258.51,-207.76 253.39,-188.31 253.73,-182.05 258.51,-162.51 260.72,-153.5 264.6,-144.33 268.86,-136.03"/>
<polygon fill="#ce3b3b" stroke="black" points="271.86,-137.84 273.63,-127.39 265.73,-134.46 271.86,-137.84"/>
<path fill="none" stroke="black" d="M159.78,-364.11C204.17,-353.11 287.28,-324.33 288.51,-262.76"/>
</g>
<!-- assault_runner_rationale_callback -->
<g id="node4" class="node">
<title>assault_runner_rationale_callback</title><style>.edge>path:hover{stroke-width:8}</style>
<ellipse fill="#6b9640" stroke="black" cx="201.51" cy="-22.63" rx="66.47" ry="22.63"/>
<text xml:space="preserve" text-anchor="middle" x="201.51" y="-25.13" font-family="Helvetica,sans-Serif" font-size="10.00" fill="#ffffff">assault_runner.</text>
<text xml:space="preserve" text-anchor="middle" x="201.51" y="-13.13" font-family="Helvetica,sans-Serif" font-size="10.00" fill="#ffffff">rationale_callback</text>
</g>
<!-- assault_runner_rationale&#45;&gt;assault_runner_rationale_callback -->
<g id="edge4" class="edge">
<title>assault_runner_rationale&#45;&gt;assault_runner_rationale_callback</title><style>.edge>path:hover{stroke-width:8}</style>
<path fill="none" stroke="black" d="M342.37,-163.13C356.93,-141.06 373.82,-106.16 356.51,-81.25 338.05,-54.7 305.82,-40.35 275.51,-32.62"/>
<polygon fill="#70b42d" stroke="black" points="276.47,-29.25 265.94,-30.4 274.89,-36.06 276.47,-29.25"/>
</g>
<!-- assault_runner_rationale&#45;&gt;assault_runner_rl_runner -->
<g id="edge5" class="edge">
<title>assault_runner_rationale&#45;&gt;assault_runner_rl_runner</title><style>.edge>path:hover{stroke-width:8}</style>
<path fill="none" stroke="black" d="M316.13,-162.48C312.32,-154.53 307.92,-145.36 303.77,-136.7"/>
<polygon fill="#70b42d" stroke="black" points="307.02,-135.38 299.54,-127.88 300.71,-138.41 307.02,-135.38"/>
</g>
<!-- stable_baselines3 -->
<g id="node6" class="node">
<title>stable_baselines3</title><style>.edge>path:hover{stroke-width:8}</style>
<polygon fill="#06efef" stroke="black" points="254.51,-279.76 251.51,-283.76 230.51,-283.76 227.51,-279.76 160.51,-279.76 160.51,-243.76 254.51,-243.76 254.51,-279.76"/>
<text xml:space="preserve" text-anchor="middle" x="207.51" y="-258.26" font-family="Helvetica,sans-Serif" font-size="10.00" fill="#000000">stable_baselines3</text>
</g>
<!-- stable_baselines3&#45;&gt;assault_runner_policies -->
<g id="edge6" class="edge">
<title>stable_baselines3&#45;&gt;assault_runner_policies</title><style>.edge>path:hover{stroke-width:8}</style>
<path fill="none" stroke="black" d="M201.51,-184.14C208.74,-149.66 213.95,-137.84 201.51,-104.88"/>
<path fill="none" stroke="black" d="M201.51,-102.88C194.12,-83.28 147.7,-59.93 109.72,-43.67"/>
<polygon fill="#06efef" stroke="black" points="111.25,-40.52 100.67,-39.87 108.54,-46.97 111.25,-40.52"/>
<path fill="none" stroke="black" d="M203.34,-243.4C200.33,-228.16 197.46,-205.47 201.51,-186.14"/>
</g>
<!-- stable_baselines3&#45;&gt;assault_runner_rationale_callback -->
<g id="edge7" class="edge">
<title>stable_baselines3&#45;&gt;assault_runner_rationale_callback</title><style>.edge>path:hover{stroke-width:8}</style>
<path fill="none" stroke="black" d="M201.51,-102.88C196.03,-88.36 195.38,-71.24 196.37,-56.64"/>
<polygon fill="#06efef" stroke="black" points="199.82,-57.36 197.31,-47.07 192.85,-56.68 199.82,-57.36"/>
</g>
<!-- stable_baselines3&#45;&gt;assault_runner_rl_runner -->
<g id="edge8" class="edge">
<title>stable_baselines3&#45;&gt;assault_runner_rl_runner</title><style>.edge>path:hover{stroke-width:8}</style>
<path fill="none" stroke="black" d="M201.51,-184.14C206.46,-160.53 225.35,-141.84 244.27,-128.56"/>
<polygon fill="#06efef" stroke="black" points="246.1,-131.54 252.52,-123.12 242.25,-125.69 246.1,-131.54"/>
</g>
<!-- torch -->
<g id="node7" class="node">
<title>torch</title><style>.edge>path:hover{stroke-width:8}</style>
<polygon fill="blue" stroke="black" points="225.51,-460.76 222.51,-464.76 201.51,-464.76 198.51,-460.76 171.51,-460.76 171.51,-424.76 225.51,-424.76 225.51,-460.76"/>
<text xml:space="preserve" text-anchor="middle" x="198.51" y="-439.26" font-family="Helvetica,sans-Serif" font-size="10.00" fill="white">torch</text>
</g>
<!-- torch&#45;&gt;assault_runner_policies -->
<g id="edge9" class="edge">
<title>torch&#45;&gt;assault_runner_policies</title><style>.edge>path:hover{stroke-width:8}</style>
<path fill="none" stroke="black" d="M77.51,-369.76C74.39,-335.96 124.65,-349.79 132.51,-316.76"/>
<path fill="none" stroke="black" d="M171.31,-437.93C136.85,-431.34 81.43,-414.18 77.51,-371.76"/>
<path fill="none" stroke="black" d="M132.51,-315.76C155.17,-220.57 105.22,-108.54 76.67,-55.09"/>
<polygon fill="blue" stroke="black" points="79.86,-53.63 71.99,-46.53 73.71,-56.98 79.86,-53.63"/>
</g>
<!-- torch&#45;&gt;assault_runner_rationale -->
<g id="edge10" class="edge">
<title>torch&#45;&gt;assault_runner_rationale</title><style>.edge>path:hover{stroke-width:8}</style>
<path fill="none" stroke="black" d="M218.11,-424.43C242.06,-402.05 281.93,-360.74 302.51,-316.76 317.08,-285.66 322.82,-246.52 325.07,-219.24"/>
<polygon fill="blue" stroke="black" points="328.55,-219.7 325.76,-209.48 321.57,-219.21 328.55,-219.7"/>
</g>
<!-- torch&#45;&gt;stable_baselines3 -->
<g id="edge11" class="edge">
<title>torch&#45;&gt;stable_baselines3</title><style>.edge>path:hover{stroke-width:8}</style>
<path fill="none" stroke="black" d="M77.51,-369.76C76.96,-358.45 87.68,-359.86 96.51,-352.76 117.86,-335.61 125.12,-333.86 146.51,-316.76 157.99,-307.59 170.2,-296.97 180.66,-287.58"/>
<polygon fill="blue" stroke="black" points="182.79,-290.37 187.85,-281.07 178.09,-285.18 182.79,-290.37"/>
</g>
</g>
</svg>
