<?xml version="1.0" encoding="UTF-8" standalone="no"?>
<!DOCTYPE svg PUBLIC "-//W3C//DTD SVG 1.1//EN"
 "http://www.w3.org/Graphics/SVG/1.1/DTD/svg11.dtd">
<!-- Generated by graphviz version 14.1.5 (20260411.2331)
 -->
<!-- Title: packages_assault_model Pages: 1 -->
<svg width="3025pt" height="548pt"
 viewBox="0.00 0.00 3025.00 548.00" xmlns="http://www.w3.org/2000/svg" xmlns:xlink="http://www.w3.org/1999/xlink">
<g id="graph0" class="graph" transform="scale(1 1) rotate(0) translate(4 544)">
<title>packages_assault_model</title>
<polygon fill="white" stroke="none" points="-4,4 -4,-544 3021,-544 3021,4 -4,4"/>
<!-- assault_model -->
<g id="node1" class="node">
<title>assault_model</title>
<polygon fill="none" stroke="black" points="1008.38,-36 914.38,-36 914.38,0 1008.38,0 1008.38,-36"/>
<text xml:space="preserve" text-anchor="start" x="922.38" y="-13.5" font-family="Times New Roman,serif" font-size="14.00">assault_model</text>
</g>
<!-- assault_model.actions -->
<g id="node2" class="node">
<title>assault_model.actions</title>
<polygon fill="none" stroke="black" points="1162.38,-36 1026.38,-36 1026.38,0 1162.38,0 1162.38,-36"/>
<text xml:space="preserve" text-anchor="start" x="1034.38" y="-13.5" font-family="Times New Roman,serif" font-size="14.00">assault_model.actions</text>
</g>
<!-- assault_model.actions.action -->
<g id="node3" class="node">
<title>assault_model.actions.action</title>
<polygon fill="none" stroke="black" points="564.75,-252 392,-252 392,-216 564.75,-216 564.75,-252"/>
<text xml:space="preserve" text-anchor="start" x="400" y="-229.5" font-family="Times New Roman,serif" font-size="14.00">assault_model.actions.action</text>
</g>
<!-- assault_model.actions.action_type -->
<g id="node5" class="node">
<title>assault_model.actions.action_type</title>
<polygon fill="none" stroke="black" points="319.75,-324 117,-324 117,-288 319.75,-288 319.75,-324"/>
<text xml:space="preserve" text-anchor="start" x="125" y="-301.5" font-family="Times New Roman,serif" font-size="14.00">assault_model.actions.action_type</text>
</g>
<!-- assault_model.actions.action&#45;&gt;assault_model.actions.action_type -->
<g id="edge1" class="edge">
<title>assault_model.actions.action&#45;&gt;assault_model.actions.action_type</title>
<path fill="none" stroke="black" d="M413.44,-252.48C377,-262.29 331.38,-274.57 293.42,-284.79"/>
<polygon fill="black" stroke="black" points="284.11,-287.3 292.6,-280.36 287.76,-286.32 293.77,-284.7 293.77,-284.7 293.77,-284.7 287.76,-286.32 294.94,-289.05 284.11,-287.3"/>
</g>
<!-- assault_model.actions.action_category -->
<g id="node4" class="node">
<title>assault_model.actions.action_category</title>
<polygon fill="none" stroke="black" points="331.38,-396 105.38,-396 105.38,-360 331.38,-360 331.38,-396"/>
<text xml:space="preserve" text-anchor="start" x="113.38" y="-373.5" font-family="Times New Roman,serif" font-size="14.00">assault_model.actions.action_category</text>
</g>
<!-- assault_model.actions.action_type&#45;&gt;assault_model.actions.action_category -->
<g id="edge2" class="edge">
<title>assault_model.actions.action_type&#45;&gt;assault_model.actions.action_category</title>
<path fill="none" stroke="black" d="M218.38,-324.3C218.38,-331.68 218.38,-340.48 218.38,-348.75"/>
<polygon fill="black" stroke="black" points="218.38,-358.68 213.88,-348.68 218.38,-354.9 218.38,-348.68 218.38,-348.68 218.38,-348.68 218.38,-354.9 222.88,-348.68 218.38,-358.68"/>
</g>
<!-- assault_model.actions.assault -->
<g id="node6" class="node">
<title>assault_model.actions.assault</title>
<polygon fill="none" stroke="black" points="403.62,-108 227.12,-108 227.12,-72 403.62,-72 403.62,-108"/>
<text xml:space="preserve" text-anchor="start" x="235.12" y="-85.5" font-family="Times New Roman,serif" font-size="14.00">assault_model.actions.assault</text>
</g>
<!-- assault_model.actions.assault&#45;&gt;assault_model.actions.action_type -->
<g id="edge3" class="edge">
<title>assault_model.actions.assault&#45;&gt;assault_model.actions.action_type</title>
<path fill="none" stroke="black" d="M242.35,-108.47C209.48,-117.95 175.91,-130.48 166.38,-144 138.7,-183.22 148.22,-207.57 166.38,-252 170.69,-262.56 178.24,-272.15 186.26,-280.19"/>
<polygon fill="black" stroke="black" points="193.46,-286.85 183.06,-283.35 190.68,-284.28 186.12,-280.05 186.12,-280.05 186.12,-280.05 190.68,-284.28 189.18,-276.75 193.46,-286.85"/>
</g>
<!-- assault_model.actions.base -->
<g id="node7" class="node">
<title>assault_model.actions.base</title>
<polygon fill="none" stroke="black" points="560.25,-180 396.5,-180 396.5,-144 560.25,-144 560.25,-180"/>
<text xml:space="preserve" text-anchor="start" x="404.5" y="-157.5" font-family="Times New Roman,serif" font-size="14.00">assault_model.actions.base</text>
</g>
<!-- assault_model.actions.assault&#45;&gt;assault_model.actions.base -->
<g id="edge4" class="edge">
<title>assault_model.actions.assault&#45;&gt;assault_model.actions.base</title>
<path fill="none" stroke="black" d="M356.09,-108.48C377.76,-117.79 404.61,-129.32 427.63,-139.21"/>
<polygon fill="black" stroke="black" points="436.78,-143.14 425.82,-143.33 433.31,-141.65 427.59,-139.19 427.59,-139.19 427.59,-139.19 433.31,-141.65 429.37,-135.06 436.78,-143.14"/>
</g>
<!-- assault_model.actions.combat_mode -->
<g id="node8" class="node">
<title>assault_model.actions.combat_mode</title>
<polygon fill="none" stroke="black" points="796.25,-180 578.5,-180 578.5,-144 796.25,-144 796.25,-180"/>
<text xml:space="preserve" text-anchor="start" x="586.5" y="-157.5" font-family="Times New Roman,serif" font-size="14.00">assault_model.actions.combat_mode</text>
</g>
<!-- assault_model.actions.assault&#45;&gt;assault_model.actions.combat_mode -->
<g id="edge5" class="edge">
<title>assault_model.actions.assault&#45;&gt;assault_model.actions.combat_mode</title>
<path fill="none" stroke="black" d="M404.01,-107.68C458.01,-117.84 527.27,-130.87 583.8,-141.51"/>
<polygon fill="black" stroke="black" points="593.36,-143.31 582.7,-145.88 589.65,-142.61 583.53,-141.46 583.53,-141.46 583.53,-141.46 589.65,-142.61 584.37,-137.04 593.36,-143.31"/>
</g>
<!-- assault_model.actions.base&#45;&gt;assault_model.actions.action -->
<g id="edge6" class="edge">
<title>assault_model.actions.base&#45;&gt;assault_model.actions.action</title>
<path fill="none" stroke="black" d="M478.38,-180.3C478.38,-187.68 478.38,-196.48 478.38,-204.75"/>
<polygon fill="black" stroke="black" points="478.38,-214.68 473.88,-204.68 478.38,-210.9 478.38,-204.68 478.38,-204.68 478.38,-204.68 478.38,-210.9 482.88,-204.68 478.38,-214.68"/>
</g>
<!-- assault_model.actions.ranged_direct -->
<g id="node9" class="node">
<title>assault_model.actions.ranged_direct</title>
<polygon fill="none" stroke="black" points="635.38,-108 421.38,-108 421.38,-72 635.38,-72 635.38,-108"/>
<text xml:space="preserve" text-anchor="start" x="429.38" y="-85.5" font-family="Times New Roman,serif" font-size="14.00">assault_model.actions.ranged_direct</text>
</g>
<!-- assault_model.actions.ranged_direct&#45;&gt;assault_model.actions.action_type -->
<g id="edge7" class="edge">
<title>assault_model.actions.ranged_direct&#45;&gt;assault_model.actions.action_type</title>
<path fill="none" stroke="black" d="M421.01,-107.47C325.72,-122.21 201.22,-141.83 199.38,-144 167.62,-181.28 187.81,-242.26 204,-277.5"/>
<polygon fill="black" stroke="black" points="208.31,-286.46 199.92,-279.4 206.67,-283.05 203.97,-277.45 203.97,-277.45 203.97,-277.45 206.67,-283.05 208.03,-275.5 208.31,-286.46"/>
</g>
<!-- assault_model.actions.ranged_direct&#45;&gt;assault_model.actions.base -->
<g id="edge8" class="edge">
<title>assault_model.actions.ranged_direct&#45;&gt;assault_model.actions.base</title>
<path fill="none" stroke="black" d="M516.02,-108.3C510.26,-116.36 503.3,-126.11 496.93,-135.02"/>
<polygon fill="black" stroke="black" points="491.3,-142.9 493.45,-132.15 493.5,-139.83 497.11,-134.77 497.11,-134.77 497.11,-134.77 493.5,-139.83 500.77,-137.38 491.3,-142.9"/>
</g>
<!-- assault_model.actions.ranged_direct&#45;&gt;assault_model.actions.combat_mode -->
<g id="edge9" class="edge">
<title>assault_model.actions.ranged_direct&#45;&gt;assault_model.actions.combat_mode</title>
<path fill="none" stroke="black" d="M568.09,-108.48C589.23,-117.79 615.42,-129.32 637.87,-139.21"/>
<polygon fill="black" stroke="black" points="646.78,-143.13 635.81,-143.22 643.32,-141.6 637.63,-139.1 637.63,-139.1 637.63,-139.1 643.32,-141.6 639.44,-134.98 646.78,-143.13"/>
</g>
<!-- assault_model.actions.ranged_indirect -->
<g id="node10" class="node">
<title>assault_model.actions.ranged_indirect</title>
<polygon fill="none" stroke="black" points="877.62,-108 653.12,-108 653.12,-72 877.62,-72 877.62,-108"/>
<text xml:space="preserve" text-anchor="start" x="661.12" y="-85.5" font-family="Times New Roman,serif" font-size="14.00">assault_model.actions.ranged_indirect</text>
</g>
<!-- assault_model.actions.ranged_indirect&#45;&gt;assault_model.actions.action_type -->
<g id="edge10" class="edge">
<title>assault_model.actions.ranged_indirect&#45;&gt;assault_model.actions.action_type</title>
<path fill="none" stroke="black" d="M783.23,-108.21C800.54,-127.03 821.95,-157.5 805.38,-180 750.11,-255.01 485.61,-286.22 331.17,-298.22"/>
<polygon fill="black" stroke="black" points="321.46,-298.96 331.09,-293.71 325.23,-298.67 331.43,-298.2 331.43,-298.2 331.43,-298.2 325.23,-298.67 331.77,-302.69 321.46,-298.96"/>
</g>
<!-- assault_model.actions.ranged_indirect&#45;&gt;assault_model.actions.base -->
<g id="edge11" class="edge">
<title>assault_model.actions.ranged_indirect&#45;&gt;assault_model.actions.base</title>
<path fill="none" stroke="black" d="M693.69,-108.48C653.22,-118.36 602.47,-130.73 560.41,-140.99"/>
<polygon fill="black" stroke="black" points="550.82,-143.33 559.47,-136.59 554.5,-142.43 560.54,-140.96 560.54,-140.96 560.54,-140.96 554.5,-142.43 561.61,-145.33 550.82,-143.33"/>
</g>
<!-- assault_model.actions.ranged_indirect&#45;&gt;assault_model.actions.combat_mode -->
<g id="edge12" class="edge">
<title>assault_model.actions.ranged_indirect&#45;&gt;assault_model.actions.combat_mode</title>
<path fill="none" stroke="black" d="M746.09,-108.3C736.72,-116.72 725.28,-126.98 715,-136.21"/>
<polygon fill="black" stroke="black" points="707.61,-142.84 712.05,-132.81 710.43,-140.31 715.05,-136.16 715.05,-136.16 715.05,-136.16 710.43,-140.31 718.06,-139.51 707.61,-142.84"/>
</g>
<!-- assault_model.actions.reaction_fire -->
<g id="node11" class="node">
<title>assault_model.actions.reaction_fire</title>
<polygon fill="none" stroke="black" points="208.75,-108 0,-108 0,-72 208.75,-72 208.75,-108"/>
<text xml:space="preserve" text-anchor="start" x="8" y="-85.5" font-family="Times New Roman,serif" font-size="14.00">assault_model.actions.reaction_fire</text>
</g>
<!-- assault_model.actions.reaction_fire&#45;&gt;assault_model.actions.action_type -->
<g id="edge13" class="edge">
<title>assault_model.actions.reaction_fire&#45;&gt;assault_model.actions.action_type</title>
<path fill="none" stroke="black" d="M105.65,-108.47C108.67,-139.75 118.5,-206.31 149.38,-252 156.97,-263.25 167.74,-273.13 178.51,-281.21"/>
<polygon fill="black" stroke="black" points="186.49,-286.87 175.73,-284.76 183.41,-284.69 178.33,-281.09 178.33,-281.09 178.33,-281.09 183.41,-284.69 180.94,-277.42 186.49,-286.87"/>
</g>
<!-- assault_model.actions.reaction_fire&#45;&gt;assault_model.actions.base -->
<g id="edge14" class="edge">
<title>assault_model.actions.reaction_fire&#45;&gt;assault_model.actions.base</title>
<path fill="none" stroke="black" d="M197.79,-108.48C255,-119.19 327.97,-132.85 385.15,-143.55"/>
<polygon fill="black" stroke="black" points="394.81,-145.36 384.15,-147.94 391.09,-144.66 384.98,-143.52 384.98,-143.52 384.98,-143.52 391.09,-144.66 385.81,-139.1 394.81,-145.36"/>
</g>
<!-- assault_model.actions.resolution -->
<g id="node12" class="node">
<title>assault_model.actions.resolution</title>
<polygon fill="none" stroke="black" points="1091.25,-180 897.5,-180 897.5,-144 1091.25,-144 1091.25,-180"/>
<text xml:space="preserve" text-anchor="start" x="905.5" y="-157.5" font-family="Times New Roman,serif" font-size="14.00">assault_model.actions.resolution</text>
</g>
<!-- assault_model.actions.resolution&#45;&gt;assault_model.actions.action -->
<g id="edge15" class="edge">
<title>assault_model.actions.resolution&#45;&gt;assault_model.actions.action</title>
<path fill="none" stroke="black" d="M897.02,-176.21C805.1,-188.68 668.01,-207.27 576.01,-219.75"/>
<polygon fill="black" stroke="black" points="566.23,-221.08 575.53,-215.28 569.98,-220.57 576.14,-219.74 576.14,-219.74 576.14,-219.74 569.98,-220.57 576.74,-224.2 566.23,-221.08"/>
</g>
<!-- assault_model.core.game_state -->
<g id="node16" class="node">
<title>assault_model.core.game_state</title>
<polygon fill="none" stroke="black" points="1460.5,-252 1274.25,-252 1274.25,-216 1460.5,-216 1460.5,-252"/>
<text xml:space="preserve" text-anchor="start" x="1282.25" y="-229.5" font-family="Times New Roman,serif" font-size="14.00">assault_model.core.game_state</text>
</g>
<!-- assault_model.actions.resolution&#45;&gt;assault_model.core.game_state -->
<g id="edge16" class="edge">
<title>assault_model.actions.resolution&#45;&gt;assault_model.core.game_state</title>
<path fill="none" stroke="black" d="M1087.54,-180.48C1141.04,-190.52 1208.36,-203.16 1263.56,-213.52"/>
<polygon fill="black" stroke="black" points="1273.23,-215.33 1262.58,-217.91 1269.52,-214.64 1263.41,-213.49 1263.41,-213.49 1263.41,-213.49 1269.52,-214.64 1264.24,-209.07 1273.23,-215.33"/>
</g>
<!-- assault_model.actions.status -->
<g id="node13" class="node">
<title>assault_model.actions.status</title>
<polygon fill="none" stroke="black" points="378.62,-180 208.12,-180 208.12,-144 378.62,-144 378.62,-180"/>
<text xml:space="preserve" text-anchor="start" x="216.12" y="-157.5" font-family="Times New Roman,serif" font-size="14.00">assault_model.actions.status</text>
</g>
<!-- assault_model.actions.status&#45;&gt;assault_model.actions.action -->
<g id="edge17" class="edge">
<title>assault_model.actions.status&#45;&gt;assault_model.actions.action</title>
<path fill="none" stroke="black" d="M339.58,-180.48C364.62,-189.96 395.75,-201.74 422.19,-211.74"/>
<polygon fill="black" stroke="black" points="431.3,-215.19 420.35,-215.86 427.76,-213.85 421.95,-211.65 421.95,-211.65 421.95,-211.65 427.76,-213.85 423.54,-207.44 431.3,-215.19"/>
</g>
<!-- assault_model.actions.status&#45;&gt;assault_model.actions.action_type -->
<g id="edge18" class="edge">
<title>assault_model.actions.status&#45;&gt;assault_model.actions.action_type</title>
<path fill="none" stroke="black" d="M284.18,-180.41C271.29,-204.82 247.73,-249.42 232.58,-278.11"/>
<polygon fill="black" stroke="black" points="227.98,-286.81 228.67,-275.87 229.75,-283.47 232.65,-277.97 232.65,-277.97 232.65,-277.97 229.75,-283.47 236.63,-280.07 227.98,-286.81"/>
</g>
<!-- assault_model.core -->
<g id="node14" class="node">
<title>assault_model.core</title>
<polygon fill="none" stroke="black" points="1524.88,-36 1403.88,-36 1403.88,0 1524.88,0 1524.88,-36"/>
<text xml:space="preserve" text-anchor="start" x="1411.88" y="-13.5" font-family="Times New Roman,serif" font-size="14.00">assault_model.core</text>
</g>
<!-- assault_model.core.activation -->
<g id="node15" class="node">
<title>assault_model.core.activation</title>
<polygon fill="none" stroke="black" points="1256.38,-252 1078.38,-252 1078.38,-216 1256.38,-216 1256.38,-252"/>
<text xml:space="preserve" text-anchor="start" x="1086.38" y="-229.5" font-family="Times New Roman,serif" font-size="14.00">assault_model.core.activation</text>
</g>
<!-- assault_model.units.unit_instance -->
<g id="node42" class="node">
<title>assault_model.units.unit_instance</title>
<polygon fill="none" stroke="black" points="1245.25,-324 1045.5,-324 1045.5,-288 1245.25,-288 1245.25,-324"/>
<text xml:space="preserve" text-anchor="start" x="1053.5" y="-301.5" font-family="Times New Roman,serif" font-size="14.00">assault_model.units.unit_instance</text>
</g>
<!-- assault_model.core.activation&#45;&gt;assault_model.units.unit_instance -->
<g id="edge19" class="edge">
<title>assault_model.core.activation&#45;&gt;assault_model.units.unit_instance</title>
<path fill="none" stroke="black" d="M1161.94,-252.3C1159.57,-259.85 1156.73,-268.88 1154.07,-277.32"/>
<polygon fill="black" stroke="black" points="1151.12,-286.73 1149.82,-275.84 1152.25,-283.13 1154.11,-277.19 1154.11,-277.19 1154.11,-277.19 1152.25,-283.13 1158.41,-278.54 1151.12,-286.73"/>
</g>
<!-- assault_model.core.victory_conditions -->
<g id="node24" class="node">
<title>assault_model.core.victory_conditions</title>
<polygon fill="none" stroke="black" points="1854.38,-396 1628.38,-396 1628.38,-360 1854.38,-360 1854.38,-396"/>
<text xml:space="preserve" text-anchor="start" x="1636.38" y="-373.5" font-family="Times New Roman,serif" font-size="14.00">assault_model.core.victory_conditions</text>
</g>
<!-- assault_model.core.game_state&#45;&gt;assault_model.core.victory_conditions -->
<g id="edge20" class="edge">
<title>assault_model.core.game_state&#45;&gt;assault_model.core.victory_conditions</title>
<path fill="none" stroke="black" d="M1460.75,-236.94C1553.7,-240.9 1687.64,-252.75 1724.38,-288 1740.34,-303.31 1743.89,-328.66 1743.86,-348.39"/>
<polygon fill="black" stroke="black" points="1743.51,-358.31 1739.36,-348.16 1743.64,-354.53 1743.86,-348.32 1743.86,-348.32 1743.86,-348.32 1743.64,-354.53 1748.35,-348.47 1743.51,-358.31"/>
</g>
<!-- assault_model.core.vp_tracker -->
<g id="node26" class="node">
<title>assault_model.core.vp_tracker</title>
<polygon fill="none" stroke="black" points="1715.62,-324 1533.12,-324 1533.12,-288 1715.62,-288 1715.62,-324"/>
<text xml:space="preserve" text-anchor="start" x="1541.12" y="-301.5" font-family="Times New Roman,serif" font-size="14.00">assault_model.core.vp_tracker</text>
</g>
<!-- assault_model.core.game_state&#45;&gt;assault_model.core.vp_tracker -->
<g id="edge21" class="edge">
<title>assault_model.core.game_state&#45;&gt;assault_model.core.vp_tracker</title>
<path fill="none" stroke="black" d="M1431.56,-252.48C1467.58,-262.29 1512.67,-274.57 1550.19,-284.79"/>
<polygon fill="black" stroke="black" points="1559.38,-287.3 1548.55,-289.01 1555.74,-286.3 1549.74,-284.67 1549.74,-284.67 1549.74,-284.67 1555.74,-286.3 1550.92,-280.33 1559.38,-287.3"/>
</g>
<!-- assault_model.map.hex -->
<g id="node28" class="node">
<title>assault_model.map.hex</title>
<polygon fill="none" stroke="black" points="1046.88,-468 901.88,-468 901.88,-432 1046.88,-432 1046.88,-468"/>
<text xml:space="preserve" text-anchor="start" x="909.88" y="-445.5" font-family="Times New Roman,serif" font-size="14.00">assault_model.map.hex</text>
</g>
<!-- assault_model.core.game_state&#45;&gt;assault_model.map.hex -->
<g id="edge22" class="edge">
<title>assault_model.core.game_state&#45;&gt;assault_model.map.hex</title>
<path fill="none" stroke="black" d="M1341.01,-252.27C1326.32,-262.22 1307.91,-275.26 1292.38,-288 1274.38,-302.75 1273.72,-311.07 1254.38,-324 1185.27,-370.18 1096.31,-406.53 1037.42,-427.86"/>
<polygon fill="black" stroke="black" points="1028.3,-431.12 1036.19,-423.52 1031.86,-429.85 1037.71,-427.75 1037.71,-427.75 1037.71,-427.75 1031.86,-429.85 1039.23,-431.99 1028.3,-431.12"/>
</g>
<!-- assault_model.map.hex_ownership -->
<g id="node31" class="node">
<title>assault_model.map.hex_ownership</title>
<polygon fill="none" stroke="black" points="1609.38,-396 1401.38,-396 1401.38,-360 1609.38,-360 1609.38,-396"/>
<text xml:space="preserve" text-anchor="start" x="1409.38" y="-373.5" font-family="Times New Roman,serif" font-size="14.00">assault_model.map.hex_ownership</text>
</g>
<!-- assault_model.core.game_state&#45;&gt;assault_model.map.hex_ownership -->
<g id="edge23" class="edge">
<title>assault_model.core.game_state&#45;&gt;assault_model.map.hex_ownership</title>
<path fill="none" stroke="black" d="M1435.19,-252.48C1454.22,-260.44 1473.27,-271.84 1486.38,-288 1500.13,-304.98 1504.57,-329.58 1505.74,-348.62"/>
<polygon fill="black" stroke="black" points="1506.07,-358.42 1501.24,-348.58 1505.94,-354.64 1505.74,-348.43 1505.74,-348.43 1505.74,-348.43 1505.94,-354.64 1510.23,-348.28 1506.07,-358.42"/>
</g>
<!-- assault_model.map.hex_state -->
<g id="node32" class="node">
<title>assault_model.map.hex_state</title>
<polygon fill="none" stroke="black" points="1477.62,-324 1301.12,-324 1301.12,-288 1477.62,-288 1477.62,-324"/>
<text xml:space="preserve" text-anchor="start" x="1309.12" y="-301.5" font-family="Times New Roman,serif" font-size="14.00">assault_model.map.hex_state</text>
</g>
<!-- assault_model.core.game_state&#45;&gt;assault_model.map.hex_state -->
<g id="edge24" class="edge">
<title>assault_model.core.game_state&#45;&gt;assault_model.map.hex_state</title>
<path fill="none" stroke="black" d="M1372.81,-252.3C1375.18,-259.85 1378.02,-268.88 1380.68,-277.32"/>
<polygon fill="black" stroke="black" points="1383.63,-286.73 1376.34,-278.54 1382.5,-283.13 1380.64,-277.19 1380.64,-277.19 1380.64,-277.19 1382.5,-283.13 1384.93,-275.84 1383.63,-286.73"/>
</g>
<!-- assault_model.map.map -->
<g id="node33" class="node">
<title>assault_model.map.map</title>
<polygon fill="none" stroke="black" points="784.12,-324 634.62,-324 634.62,-288 784.12,-288 784.12,-324"/>
<text xml:space="preserve" text-anchor="start" x="642.62" y="-301.5" font-family="Times New Roman,serif" font-size="14.00">assault_model.map.map</text>
</g>
<!-- assault_model.core.game_state&#45;&gt;assault_model.map.map -->
<g id="edge25" class="edge">
<title>assault_model.core.game_state&#45;&gt;assault_model.map.map</title>
<path fill="none" stroke="black" d="M1273.77,-250.93C1270.94,-251.31 1268.14,-251.67 1265.38,-252 1059.65,-276.92 1003.09,-259.41 795.38,-287.68"/>
<polygon fill="black" stroke="black" points="785.61,-289.02 794.9,-283.2 789.36,-288.51 795.52,-287.66 795.52,-287.66 795.52,-287.66 789.36,-288.51 796.13,-292.11 785.61,-289.02"/>
</g>
<!-- assault_model.core.game_state&#45;&gt;assault_model.units.unit_instance -->
<g id="edge26" class="edge">
<title>assault_model.core.game_state&#45;&gt;assault_model.units.unit_instance</title>
<path fill="none" stroke="black" d="M1311.93,-252.48C1281.35,-262.12 1243.2,-274.16 1211.12,-284.27"/>
<polygon fill="black" stroke="black" points="1201.66,-287.25 1209.85,-279.95 1205.27,-286.11 1211.2,-284.24 1211.2,-284.24 1211.2,-284.24 1205.27,-286.11 1212.55,-288.54 1201.66,-287.25"/>
</g>
<!-- assault_model.core.game_state_reactions -->
<g id="node17" class="node">
<title>assault_model.core.game_state_reactions</title>
<polygon fill="none" stroke="black" points="1784.25,-36 1542.5,-36 1542.5,0 1784.25,0 1784.25,-36"/>
<text xml:space="preserve" text-anchor="start" x="1550.5" y="-13.5" font-family="Times New Roman,serif" font-size="14.00">assault_model.core.game_state_reactions</text>
</g>
<!-- assault_model.core.reaction_registry -->
<g id="node20" class="node">
<title>assault_model.core.reaction_registry</title>
<polygon fill="none" stroke="black" points="1771.5,-108 1555.25,-108 1555.25,-72 1771.5,-72 1771.5,-108"/>
<text xml:space="preserve" text-anchor="start" x="1563.25" y="-85.5" font-family="Times New Roman,serif" font-size="14.00">assault_model.core.reaction_registry</text>
</g>
<!-- assault_model.core.game_state_reactions&#45;&gt;assault_model.core.reaction_registry -->
<g id="edge27" class="edge">
<title>assault_model.core.game_state_reactions&#45;&gt;assault_model.core.reaction_registry</title>
<path fill="none" stroke="black" d="M1663.38,-36.3C1663.38,-43.68 1663.38,-52.48 1663.38,-60.75"/>
<polygon fill="black" stroke="black" points="1663.38,-70.68 1658.88,-60.68 1663.38,-66.9 1663.38,-60.68 1663.38,-60.68 1663.38,-60.68 1663.38,-66.9 1667.88,-60.68 1663.38,-70.68"/>
</g>
<!-- assault_model.core.game_state_runtime -->
<g id="node18" class="node">
<title>assault_model.core.game_state_runtime</title>
<polygon fill="none" stroke="black" points="1319.25,-108 1083.5,-108 1083.5,-72 1319.25,-72 1319.25,-108"/>
<text xml:space="preserve" text-anchor="start" x="1091.5" y="-85.5" font-family="Times New Roman,serif" font-size="14.00">assault_model.core.game_state_runtime</text>
</g>
<!-- assault_model.core.game_state_runtime&#45;&gt;assault_model.actions.action -->
<g id="edge28" class="edge">
<title>assault_model.core.game_state_runtime&#45;&gt;assault_model.actions.action</title>
<path fill="none" stroke="black" d="M1083.16,-104.15C1023.91,-112.47 951.51,-125.26 888.38,-144 849.83,-155.44 843.96,-168.7 805.38,-180 729.83,-202.13 641.58,-215.75 575.82,-223.63"/>
<polygon fill="black" stroke="black" points="566.26,-224.75 575.67,-219.11 570.01,-224.31 576.19,-223.58 576.19,-223.58 576.19,-223.58 570.01,-224.31 576.71,-228.05 566.26,-224.75"/>
</g>
<!-- assault_model.core.game_state_runtime&#45;&gt;assault_model.actions.resolution -->
<g id="edge29" class="edge">
<title>assault_model.core.game_state_runtime&#45;&gt;assault_model.actions.resolution</title>
<path fill="none" stroke="black" d="M1149.67,-108.48C1121.29,-118.08 1085.9,-130.05 1056.07,-140.14"/>
<polygon fill="black" stroke="black" points="1046.93,-143.23 1054.96,-135.76 1050.51,-142.02 1056.4,-140.02 1056.4,-140.02 1056.4,-140.02 1050.51,-142.02 1057.84,-144.29 1046.93,-143.23"/>
</g>
<!-- assault_model.core.game_state_runtime&#45;&gt;assault_model.core.activation -->
<g id="edge30" class="edge">
<title>assault_model.core.game_state_runtime&#45;&gt;assault_model.core.activation</title>
<path fill="none" stroke="black" d="M1232.01,-108.43C1244.48,-117.32 1257.56,-129.36 1264.38,-144 1271.13,-158.51 1272.54,-166.24 1264.38,-180 1256.73,-192.88 1244.73,-202.84 1231.74,-210.45"/>
<polygon fill="black" stroke="black" points="1223.23,-215.01 1229.92,-206.32 1226.57,-213.23 1232.05,-210.29 1232.05,-210.29 1232.05,-210.29 1226.57,-213.23 1234.17,-214.25 1223.23,-215.01"/>
</g>
<!-- assault_model.core.game_state_runtime&#45;&gt;assault_model.core.game_state -->
<g id="edge31" class="edge">
<title>assault_model.core.game_state_runtime&#45;&gt;assault_model.core.game_state</title>
<path fill="none" stroke="black" d="M1230.96,-108.44C1246.54,-118.15 1265.62,-130.9 1281.38,-144 1304.76,-163.45 1328.58,-188.61 1345.21,-207.21"/>
<polygon fill="black" stroke="black" points="1351.73,-214.6 1341.74,-210.08 1349.22,-211.76 1345.11,-207.1 1345.11,-207.1 1345.11,-207.1 1349.22,-211.76 1348.48,-204.12 1351.73,-214.6"/>
</g>
<!-- assault_model.core.turn -->
<g id="node23" class="node">
<title>assault_model.core.turn</title>
<polygon fill="none" stroke="black" points="1255.62,-180 1109.12,-180 1109.12,-144 1255.62,-144 1255.62,-180"/>
<text xml:space="preserve" text-anchor="start" x="1117.12" y="-157.5" font-family="Times New Roman,serif" font-size="14.00">assault_model.core.turn</text>
</g>
<!-- assault_model.core.game_state_runtime&#45;&gt;assault_model.core.turn -->
<g id="edge32" class="edge">
<title>assault_model.core.game_state_runtime&#45;&gt;assault_model.core.turn</title>
<path fill="none" stroke="black" d="M1196.68,-108.3C1194.63,-115.85 1192.18,-124.88 1189.89,-133.32"/>
<polygon fill="black" stroke="black" points="1187.34,-142.72 1185.61,-131.89 1188.33,-139.07 1189.96,-133.07 1189.96,-133.07 1189.96,-133.07 1188.33,-139.07 1194.3,-134.25 1187.34,-142.72"/>
</g>
<!-- assault_model.core.model_adapter -->
<g id="node19" class="node">
<title>assault_model.core.model_adapter</title>
<polygon fill="none" stroke="black" points="1386.25,-36 1180.5,-36 1180.5,0 1386.25,0 1386.25,-36"/>
<text xml:space="preserve" text-anchor="start" x="1188.5" y="-13.5" font-family="Times New Roman,serif" font-size="14.00">assault_model.core.model_adapter</text>
</g>
<!-- assault_model.core.model_adapter&#45;&gt;assault_model.core.game_state -->
<g id="edge33" class="edge">
<title>assault_model.core.model_adapter&#45;&gt;assault_model.core.game_state</title>
<path fill="none" stroke="black" d="M1301.51,-36.1C1310.82,-45.81 1321.59,-58.66 1328.38,-72 1350.43,-115.33 1360.36,-171.65 1364.57,-204.9"/>
<polygon fill="black" stroke="black" points="1365.68,-214.43 1360.05,-205.02 1365.24,-210.68 1364.52,-204.5 1364.52,-204.5 1364.52,-204.5 1365.24,-210.68 1368.99,-203.98 1365.68,-214.43"/>
</g>
<!-- assault_model.core.model_adapter&#45;&gt;assault_model.core.game_state_runtime -->
<g id="edge34" class="edge">
<title>assault_model.core.model_adapter&#45;&gt;assault_model.core.game_state_runtime</title>
<path fill="none" stroke="black" d="M1263.11,-36.3C1253.15,-44.8 1240.98,-55.19 1230.09,-64.49"/>
<polygon fill="black" stroke="black" points="1222.62,-70.86 1227.31,-60.95 1225.5,-68.41 1230.23,-64.37 1230.23,-64.37 1230.23,-64.37 1225.5,-68.41 1233.15,-67.79 1222.62,-70.86"/>
</g>
<!-- assault_model.core.replay -->
<g id="node21" class="node">
<title>assault_model.core.replay</title>
<polygon fill="none" stroke="black" points="1960.62,-36 1802.12,-36 1802.12,0 1960.62,0 1960.62,-36"/>
<text xml:space="preserve" text-anchor="start" x="1810.12" y="-13.5" font-family="Times New Roman,serif" font-size="14.00">assault_model.core.replay</text>
</g>
<!-- assault_model.core.scenario -->
<g id="node22" class="node">
<title>assault_model.core.scenario</title>
<polygon fill="none" stroke="black" points="1060.25,-252 890.5,-252 890.5,-216 1060.25,-216 1060.25,-252"/>
<text xml:space="preserve" text-anchor="start" x="898.5" y="-229.5" font-family="Times New Roman,serif" font-size="14.00">assault_model.core.scenario</text>
</g>
<!-- assault_model.core.scenario&#45;&gt;assault_model.map.map -->
<g id="edge35" class="edge">
<title>assault_model.core.scenario&#45;&gt;assault_model.map.map</title>
<path fill="none" stroke="black" d="M908.94,-252.48C871.66,-262.29 824.99,-274.57 786.16,-284.79"/>
<polygon fill="black" stroke="black" points="776.6,-287.31 785.13,-280.41 780.26,-286.35 786.27,-284.76 786.27,-284.76 786.27,-284.76 780.26,-286.35 787.42,-289.12 776.6,-287.31"/>
</g>
<!-- assault_model.core.scenario&#45;&gt;assault_model.units.unit_instance -->
<g id="edge36" class="edge">
<title>assault_model.core.scenario&#45;&gt;assault_model.units.unit_instance</title>
<path fill="none" stroke="black" d="M1017.83,-252.48C1040.64,-261.87 1068.95,-273.53 1093.1,-283.47"/>
<polygon fill="black" stroke="black" points="1102.04,-287.15 1091.08,-287.51 1098.54,-285.71 1092.79,-283.35 1092.79,-283.35 1092.79,-283.35 1098.54,-285.71 1094.5,-279.19 1102.04,-287.15"/>
</g>
<!-- assault_model.core.victory_point -->
<g id="node25" class="node">
<title>assault_model.core.victory_point</title>
<polygon fill="none" stroke="black" points="1840.12,-468 1642.62,-468 1642.62,-432 1840.12,-432 1840.12,-468"/>
<text xml:space="preserve" text-anchor="start" x="1650.62" y="-445.5" font-family="Times New Roman,serif" font-size="14.00">assault_model.core.victory_point</text>
</g>
<!-- assault_model.core.victory_conditions&#45;&gt;assault_model.core.victory_point -->
<g id="edge37" class="edge">
<title>assault_model.core.victory_conditions&#45;&gt;assault_model.core.victory_point</title>
<path fill="none" stroke="black" d="M1741.38,-396.3C1741.38,-403.68 1741.38,-412.48 1741.38,-420.75"/>
<polygon fill="black" stroke="black" points="1741.38,-430.68 1736.88,-420.68 1741.38,-426.9 1741.38,-420.68 1741.38,-420.68 1741.38,-420.68 1741.38,-426.9 1745.88,-420.68 1741.38,-430.68"/>
</g>
<!-- assault_model.core.vp_tracker&#45;&gt;assault_model.core.victory_conditions -->
<g id="edge38" class="edge">
<title>assault_model.core.vp_tracker&#45;&gt;assault_model.core.victory_conditions</title>
<path fill="none" stroke="black" d="M1653.6,-324.48C1668.65,-333.49 1687.18,-344.58 1703.33,-354.24"/>
<polygon fill="black" stroke="black" points="1711.48,-359.11 1700.59,-357.84 1708.23,-357.17 1702.9,-353.98 1702.9,-353.98 1702.9,-353.98 1708.23,-357.17 1705.21,-350.12 1711.48,-359.11"/>
</g>
<!-- assault_model.core.vp_tracker&#45;&gt;assault_model.map.hex_ownership -->
<g id="edge39" class="edge">
<title>assault_model.core.vp_tracker&#45;&gt;assault_model.map.hex_ownership</title>
<path fill="none" stroke="black" d="M1594.65,-324.48C1579.35,-333.49 1560.5,-344.58 1544.07,-354.24"/>
<polygon fill="black" stroke="black" points="1535.77,-359.12 1542.11,-350.17 1539.03,-357.2 1544.39,-354.05 1544.39,-354.05 1544.39,-354.05 1539.03,-357.2 1546.67,-357.93 1535.77,-359.12"/>
</g>
<!-- assault_model.map -->
<g id="node27" class="node">
<title>assault_model.map</title>
<polygon fill="none" stroke="black" points="2100.25,-36 1978.5,-36 1978.5,0 2100.25,0 2100.25,-36"/>
<text xml:space="preserve" text-anchor="start" x="1986.5" y="-13.5" font-family="Times New Roman,serif" font-size="14.00">assault_model.map</text>
</g>
<!-- assault_model.map.hex_direction -->
<g id="node30" class="node">
<title>assault_model.map.hex_direction</title>
<polygon fill="none" stroke="black" points="934.25,-540 734.5,-540 734.5,-504 934.25,-504 934.25,-540"/>
<text xml:space="preserve" text-anchor="start" x="742.5" y="-517.5" font-family="Times New Roman,serif" font-size="14.00">assault_model.map.hex_direction</text>
</g>
<!-- assault_model.map.hex&#45;&gt;assault_model.map.hex_direction -->
<g id="edge40" class="edge">
<title>assault_model.map.hex&#45;&gt;assault_model.map.hex_direction</title>
<path fill="none" stroke="black" d="M939.41,-468.48C921.06,-477.66 898.39,-488.99 878.81,-498.78"/>
<polygon fill="black" stroke="black" points="869.99,-503.19 876.92,-494.7 873.37,-501.5 878.93,-498.72 878.93,-498.72 878.93,-498.72 873.37,-501.5 880.94,-502.75 869.99,-503.19"/>
</g>
<!-- assault_model.map.terrain -->
<g id="node36" class="node">
<title>assault_model.map.terrain</title>
<polygon fill="none" stroke="black" points="1133.75,-540 973,-540 973,-504 1133.75,-504 1133.75,-540"/>
<text xml:space="preserve" text-anchor="start" x="981" y="-517.5" font-family="Times New Roman,serif" font-size="14.00">assault_model.map.terrain</text>
</g>
<!-- assault_model.map.hex&#45;&gt;assault_model.map.terrain -->
<g id="edge41" class="edge">
<title>assault_model.map.hex&#45;&gt;assault_model.map.terrain</title>
<path fill="none" stroke="black" d="M993.9,-468.3C1003.49,-476.8 1015.22,-487.19 1025.71,-496.49"/>
<polygon fill="black" stroke="black" points="1032.89,-502.85 1022.42,-499.58 1030.06,-500.34 1025.4,-496.21 1025.4,-496.21 1025.4,-496.21 1030.06,-500.34 1028.39,-492.85 1032.89,-502.85"/>
</g>
<!-- assault_model.map.hex_coord -->
<g id="node29" class="node">
<title>assault_model.map.hex_coord</title>
<polygon fill="none" stroke="black" points="883.62,-468 701.12,-468 701.12,-432 883.62,-432 883.62,-468"/>
<text xml:space="preserve" text-anchor="start" x="709.12" y="-445.5" font-family="Times New Roman,serif" font-size="14.00">assault_model.map.hex_coord</text>
</g>
<!-- assault_model.map.hex_coord&#45;&gt;assault_model.map.hex_direction -->
<g id="edge42" class="edge">
<title>assault_model.map.hex_coord&#45;&gt;assault_model.map.hex_direction</title>
<path fill="none" stroke="black" d="M802.76,-468.3C807.49,-476.19 813.19,-485.7 818.45,-494.45"/>
<polygon fill="black" stroke="black" points="823.49,-502.85 814.48,-496.59 821.54,-499.61 818.34,-494.28 818.34,-494.28 818.34,-494.28 821.54,-499.61 822.2,-491.96 823.49,-502.85"/>
</g>
<!-- assault_model.map.hex_state&#45;&gt;assault_model.map.hex -->
<g id="edge43" class="edge">
<title>assault_model.map.hex_state&#45;&gt;assault_model.map.hex</title>
<path fill="none" stroke="black" d="M1375.12,-324.23C1357,-344.86 1323.69,-378.79 1287.38,-396 1214.87,-430.36 1123.61,-442.78 1058.37,-447.1"/>
<polygon fill="black" stroke="black" points="1048.54,-447.7 1058.24,-442.6 1052.31,-447.47 1058.52,-447.1 1058.52,-447.1 1058.52,-447.1 1052.31,-447.47 1058.79,-451.59 1048.54,-447.7"/>
</g>
<!-- assault_model.map.hex_state&#45;&gt;assault_model.map.hex_ownership -->
<g id="edge44" class="edge">
<title>assault_model.map.hex_state&#45;&gt;assault_model.map.hex_ownership</title>
<path fill="none" stroke="black" d="M1418.35,-324.48C1433.13,-333.4 1451.3,-344.37 1467.21,-353.97"/>
<polygon fill="black" stroke="black" points="1475.73,-359.11 1464.84,-357.8 1472.49,-357.16 1467.17,-353.94 1467.17,-353.94 1467.17,-353.94 1472.49,-357.16 1469.49,-350.09 1475.73,-359.11"/>
</g>
<!-- assault_model.map.map_piece -->
<g id="node34" class="node">
<title>assault_model.map.map_piece</title>
<polygon fill="none" stroke="black" points="946.75,-396 762,-396 762,-360 946.75,-360 946.75,-396"/>
<text xml:space="preserve" text-anchor="start" x="770" y="-373.5" font-family="Times New Roman,serif" font-size="14.00">assault_model.map.map_piece</text>
</g>
<!-- assault_model.map.map&#45;&gt;assault_model.map.map_piece -->
<g id="edge45" class="edge">
<title>assault_model.map.map&#45;&gt;assault_model.map.map_piece</title>
<path fill="none" stroke="black" d="M745.59,-324.48C764.61,-333.66 788.11,-345.01 808.4,-354.8"/>
<polygon fill="black" stroke="black" points="817.27,-359.09 806.31,-358.79 813.87,-357.44 808.27,-354.74 808.27,-354.74 808.27,-354.74 813.87,-357.44 810.22,-350.69 817.27,-359.09"/>
</g>
<!-- assault_model.map.map_piece&#45;&gt;assault_model.map.hex -->
<g id="edge46" class="edge">
<title>assault_model.map.map_piece&#45;&gt;assault_model.map.hex</title>
<path fill="none" stroke="black" d="M884.35,-396.48C899.78,-405.49 918.79,-416.58 935.36,-426.24"/>
<polygon fill="black" stroke="black" points="943.73,-431.13 932.83,-429.97 940.47,-429.22 935.1,-426.09 935.1,-426.09 935.1,-426.09 940.47,-429.22 937.36,-422.2 943.73,-431.13"/>
</g>
<!-- assault_model.map.map_piece_loader -->
<g id="node35" class="node">
<title>assault_model.map.map_piece_loader</title>
<polygon fill="none" stroke="black" points="1027,-324 801.75,-324 801.75,-288 1027,-288 1027,-324"/>
<text xml:space="preserve" text-anchor="start" x="809.75" y="-301.5" font-family="Times New Roman,serif" font-size="14.00">assault_model.map.map_piece_loader</text>
</g>
<!-- assault_model.map.map_piece_loader&#45;&gt;assault_model.map.hex -->
<g id="edge47" class="edge">
<title>assault_model.map.map_piece_loader&#45;&gt;assault_model.map.hex</title>
<path fill="none" stroke="black" d="M930.99,-324.3C939.5,-334.07 949.3,-346.91 955.38,-360 964.27,-379.16 969.05,-402.59 971.6,-420.6"/>
<polygon fill="black" stroke="black" points="972.81,-430.34 967.11,-420.97 972.35,-426.59 971.57,-420.41 971.57,-420.41 971.57,-420.41 972.35,-426.59 976.04,-419.86 972.81,-430.34"/>
</g>
<!-- assault_model.map.map_piece_loader&#45;&gt;assault_model.map.map_piece -->
<g id="edge48" class="edge">
<title>assault_model.map.map_piece_loader&#45;&gt;assault_model.map.map_piece</title>
<path fill="none" stroke="black" d="M899.54,-324.3C892.5,-332.53 883.93,-342.52 876.16,-351.58"/>
<polygon fill="black" stroke="black" points="869.83,-358.97 872.92,-348.45 872.29,-356.1 876.34,-351.38 876.34,-351.38 876.34,-351.38 872.29,-356.1 879.75,-354.31 869.83,-358.97"/>
</g>
<!-- assault_model.map.map_piece_loader&#45;&gt;assault_model.map.terrain -->
<g id="edge49" class="edge">
<title>assault_model.map.map_piece_loader&#45;&gt;assault_model.map.terrain</title>
<path fill="none" stroke="black" d="M946.83,-324.46C981.19,-345.02 1033.41,-382.69 1055.38,-432 1063.83,-450.99 1062.85,-474.6 1060.01,-492.73"/>
<polygon fill="black" stroke="black" points="1058.18,-502.55 1055.59,-491.9 1058.88,-498.83 1060.01,-492.72 1060.01,-492.72 1060.01,-492.72 1058.88,-498.83 1064.44,-493.54 1058.18,-502.55"/>
</g>
<!-- assault_model.rulesets -->
<g id="node37" class="node">
<title>assault_model.rulesets</title>
<polygon fill="none" stroke="black" points="2256.88,-36 2117.88,-36 2117.88,0 2256.88,0 2256.88,-36"/>
<text xml:space="preserve" text-anchor="start" x="2125.88" y="-13.5" font-family="Times New Roman,serif" font-size="14.00">assault_model.rulesets</text>
</g>
<!-- assault_model.rulesets.ruleset -->
<g id="node38" class="node">
<title>assault_model.rulesets.ruleset</title>
<polygon fill="none" stroke="black" points="2453.75,-36 2275,-36 2275,0 2453.75,0 2453.75,-36"/>
<text xml:space="preserve" text-anchor="start" x="2283" y="-13.5" font-family="Times New Roman,serif" font-size="14.00">assault_model.rulesets.ruleset</text>
</g>
<!-- assault_model.units -->
<g id="node39" class="node">
<title>assault_model.units</title>
<polygon fill="none" stroke="black" points="2595.38,-36 2471.38,-36 2471.38,0 2595.38,0 2595.38,-36"/>
<text xml:space="preserve" text-anchor="start" x="2479.38" y="-13.5" font-family="Times New Roman,serif" font-size="14.00">assault_model.units</text>
</g>
<!-- assault_model.units.attributes -->
<g id="node40" class="node">
<title>assault_model.units.attributes</title>
<polygon fill="none" stroke="black" points="2791.38,-36 2613.38,-36 2613.38,0 2791.38,0 2791.38,-36"/>
<text xml:space="preserve" text-anchor="start" x="2621.38" y="-13.5" font-family="Times New Roman,serif" font-size="14.00">assault_model.units.attributes</text>
</g>
<!-- assault_model.units.catalog_loader -->
<g id="node41" class="node">
<title>assault_model.units.catalog_loader</title>
<polygon fill="none" stroke="black" points="3017,-36 2809.75,-36 2809.75,0 3017,0 3017,-36"/>
<text xml:space="preserve" text-anchor="start" x="2817.75" y="-13.5" font-family="Times New Roman,serif" font-size="14.00">assault_model.units.catalog_loader</text>
</g>
<!-- assault_model.units.unit_type -->
<g id="node43" class="node">
<title>assault_model.units.unit_type</title>
<polygon fill="none" stroke="black" points="3002.75,-108 2824,-108 2824,-72 3002.75,-72 3002.75,-108"/>
<text xml:space="preserve" text-anchor="start" x="2832" y="-85.5" font-family="Times New Roman,serif" font-size="14.00">assault_model.units.unit_type</text>
</g>
<!-- assault_model.units.catalog_loader&#45;&gt;assault_model.units.unit_type -->
<g id="edge50" class="edge">
<title>assault_model.units.catalog_loader&#45;&gt;assault_model.units.unit_type</title>
<path fill="none" stroke="black" d="M2913.38,-36.3C2913.38,-43.68 2913.38,-52.48 2913.38,-60.75"/>
<polygon fill="black" stroke="black" points="2913.38,-70.68 2908.88,-60.68 2913.38,-66.9 2913.38,-60.68 2913.38,-60.68 2913.38,-60.68 2913.38,-66.9 2917.88,-60.68 2913.38,-70.68"/>
</g>
</g>
</svg>
